<svg xmlns="http://www.w3.org/2000/svg" viewBox="0 0 24 24" fill="currentColor">
  <path d="M8.948 8.798V6.69c0 0 .27-.015.396-.015 2.396-.098 4.06 2.092 4.06 2.092s-1.858 2.389-3.457 2.389c-.37 0-.69-.1-.999-.272V8.798zm0-4.759v1.96l.396-.044c3.256-.27 5.476 2.648 5.476 2.648s-3.062 3.561-5.093 3.561c-.296 0-.565-.044-.779-.117v1.136c.192.03.37.044.58.044 1.858 0 3.457-1.107 5.313-2.814.29.235 1.48.806 1.725.953-1.622 1.38-5.4 3.062-6.994 3.062-.213 0-.413-.015-.624-.044v1.003h8.23V4.04H8.948zM3.95 12.283c-1.56-.95-2.041-2.532-2.041-3.728 0-4.26 4.91-5.164 7.039-5.164v1.404c-2.725.17-4.936 1.901-4.936 3.93 0 1.115.565 1.798 1.19 2.213 2.74 1.798 6.994-.535 9.29-2.73l.624.844C12.987 11.335 7.51 14.471 3.95 12.283z"/>
</svg>
